<?xml version="1.0" encoding="UTF-8" standalone="no"?>
<!-- Generator: Adobe Illustrator 16.0.0, SVG Export Plug-In . SVG Version: 6.00 Build 0)  -->

<svg
   xmlns:dc="http://purl.org/dc/elements/1.1/"
   xmlns:cc="http://creativecommons.org/ns#"
   xmlns:rdf="http://www.w3.org/1999/02/22-rdf-syntax-ns#"
   xmlns:svg="http://www.w3.org/2000/svg"
   xmlns="http://www.w3.org/2000/svg"
   xmlns:sodipodi="http://sodipodi.sourceforge.net/DTD/sodipodi-0.dtd"
   xmlns:inkscape="http://www.inkscape.org/namespaces/inkscape"
   version="1.1"
   id="Capa_1"
   x="0px"
   y="0px"
   width="340.274px"
   height="340.274px"
   viewBox="0 0 340.274 340.274"
   style="enable-background:new 0 0 340.274 340.274;"
   xml:space="preserve"
   sodipodi:docname="settings2.svg"
   inkscape:version="0.92.1 r15371"><metadata
     id="metadata53"><rdf:RDF><cc:Work
         rdf:about=""><dc:format>image/svg+xml</dc:format><dc:type
           rdf:resource="http://purl.org/dc/dcmitype/StillImage" /><dc:title></dc:title></cc:Work></rdf:RDF></metadata><defs
     id="defs51" /><sodipodi:namedview
     pagecolor="#ffffff"
     bordercolor="#666666"
     borderopacity="1"
     objecttolerance="10"
     gridtolerance="10"
     guidetolerance="10"
     inkscape:pageopacity="0"
     inkscape:pageshadow="2"
     inkscape:window-width="1366"
     inkscape:window-height="705"
     id="namedview49"
     showgrid="false"
     inkscape:zoom="1.5752012"
     inkscape:cx="170.13699"
     inkscape:cy="170.13699"
     inkscape:window-x="-8"
     inkscape:window-y="-8"
     inkscape:window-maximized="1"
     inkscape:current-layer="Capa_1" /><g
     id="g16"><g
       id="g14"><g
         id="g12"><path
           d="M293.629,127.806l-5.795-13.739c19.846-44.856,18.53-46.189,14.676-50.08l-25.353-24.77l-2.516-2.12h-2.937     c-1.549,0-6.173,0-44.712,17.48l-14.184-5.719c-18.332-45.444-20.212-45.444-25.58-45.444h-35.765     c-5.362,0-7.446-0.006-24.448,45.606l-14.123,5.734C86.848,43.757,71.574,38.19,67.452,38.19l-3.381,0.105L36.801,65.032     c-4.138,3.891-5.582,5.263,15.402,49.425l-5.774,13.691C0,146.097,0,147.838,0,153.33v35.068c0,5.501,0,7.44,46.585,24.127     l5.773,13.667c-19.843,44.832-18.51,46.178-14.655,50.032l25.353,24.8l2.522,2.168h2.951c1.525,0,6.092,0,44.685-17.516     l14.159,5.758c18.335,45.438,20.218,45.427,25.598,45.427h35.771c5.47,0,7.41,0,24.463-45.589l14.195-5.74     c26.014,11,41.253,16.585,45.349,16.585l3.404-0.096l27.479-26.901c3.909-3.945,5.278-5.309-15.589-49.288l5.734-13.702     c46.496-17.967,46.496-19.853,46.496-25.221v-35.029C340.268,146.361,340.268,144.434,293.629,127.806z M170.128,228.474     c-32.798,0-59.504-26.187-59.504-58.364c0-32.153,26.707-58.315,59.504-58.315c32.78,0,59.43,26.168,59.43,58.315     C229.552,202.287,202.902,228.474,170.128,228.474z"
           id="path10" /></g></g></g><g
     id="g18" /><g
     id="g20" /><g
     id="g22" /><g
     id="g24" /><g
     id="g26" /><g
     id="g28" /><g
     id="g30" /><g
     id="g32" /><g
     id="g34" /><g
     id="g36" /><g
     id="g38" /><g
     id="g40" /><g
     id="g42" /><g
     id="g44" /><g
     id="g46" /><ellipse
     style="fill:#ffffff"
     id="path64"
     cx="168.23247"
     cy="169.81958"
     rx="67.927826"
     ry="65.071053" /></svg>